arm26_states
version=1
nRows=31
nColumns=17
inDegrees=yes

# SIMM Motion File Header:
name arm26_states
datacolumns 17
datarows 31
otherdata 1
range 0.40707160 0.49159679
endheader
time	r_shoulder_elev	r_elbow_flex	r_shoulder_elev_u	r_elbow_flex_u	TRIlong.activation	TRIlong.fiber_length	TRIlat.activation	TRIlat.fiber_length	TRImed.activation	TRImed.fiber_length	BIClong.activation	BIClong.fiber_length	BICshort.activation	BICshort.fiber_length	BRA.activation	BRA.fiber_length
      0.40707160	    -11.97470646	     80.74205991	     -2.77726592	    124.75527484	      0.01000959	      0.15921468	      0.03393721	      0.10071967	      0.03211516	      0.09574808	      0.21677892	      0.10969240	      0.02436746	      0.10824487	      0.01012127	      0.07229471
      0.40930831	    -11.98100189	     81.01973006	     -2.85388426	    123.53372619	      0.01000955	      0.15929973	      0.03417761	      0.10081149	      0.03234669	      0.09583992	      0.21711541	      0.10945969	      0.02427761	      0.10802017	      0.01012091	      0.07219163
      0.41202490	    -11.98890120	     81.35333549	     -2.96520656	    122.07633090	      0.01000950	      0.15940834	      0.03447212	      0.10092181	      0.03263055	      0.09595025	      0.21752536	      0.10917972	      0.02416658	      0.10774995	      0.01012046	      0.07206747
      0.41474149	    -11.99712736	     81.68302870	     -3.09337041	    120.65710180	      0.01000945	      0.15950858	      0.03476892	      0.10103082	      0.03291681	      0.09605929	      0.21793639	      0.10890266	      0.02405354	      0.10748265	      0.01012003	      0.07194443
      0.41745808	    -12.00572678	     82.00890896	     -3.24164442	    119.26339690	      0.01000939	      0.15961901	      0.03506755	      0.10113857	      0.03320499	      0.09616707	      0.21834814	      0.10862847	      0.02393862	      0.10721823	      0.01011959	      0.07182250
      0.41967428	    -12.01305464	     82.27199153	     -3.37312625	    118.15877457	      0.01000935	      0.15969555	      0.03531301	      0.10122556	      0.03344204	      0.09625408	      0.21868341	      0.10840690	      0.02384343	      0.10700464	      0.01011924	      0.07172383
      0.42189048	    -12.02068830	     82.53264414	     -3.51781927	    117.06963507	      0.01000931	      0.15977933	      0.03556006	      0.10131174	      0.03368078	      0.09634027	      0.21901786	      0.10818721	      0.02374698	      0.10679292	      0.01011889	      0.07162587
      0.42505461	    -12.03216981	     82.90065701	     -3.74271101	    115.55461849	      0.01000925	      0.15989242	      0.03591515	      0.10143341	      0.03402417	      0.09646197	      0.21949405	      0.10787680	      0.02360742	      0.10649385	      0.01011841	      0.07148723
      0.42779390	    -12.04271052	     83.21543460	     -3.95659594	    114.27236246	      0.01000920	      0.15999529	      0.03625194	      0.10153736	      0.03435542	      0.09656592	      0.21987917	      0.10761113	      0.02351104	      0.10623784	      0.01012298	      0.07136831
      0.43053319	    -12.05385751	     83.52674290	     -4.18356013	    113.02596449	      0.01000915	      0.16008637	      0.03663480	      0.10163978	      0.03474010	      0.09666827	      0.22022114	      0.10734835	      0.02346163	      0.10598403	      0.01013728	      0.07125035
      0.43327248	    -12.06564707	     83.83466665	     -4.42748747	    111.79432301	      0.01000910	      0.16018936	      0.03705271	      0.10174067	      0.03516540	      0.09676905	      0.22053028	      0.10708849	      0.02346381	      0.10573213	      0.01015910	      0.07113333
      0.43557197	    -12.07607047	     84.09057432	     -4.63973126	    110.78649549	      0.01000906	      0.16026195	      0.03740707	      0.10182422	      0.03552574	      0.09685247	      0.22078584	      0.10687258	      0.02349644	      0.10552188	      0.01017777	      0.07103584
      0.43787147	    -12.08699396	     84.34417465	     -4.86259955	    109.78652367	      0.01000902	      0.16034141	      0.03774514	      0.10190714	      0.03586580	      0.09693531	      0.22105550	      0.10665864	      0.02349749	      0.10531317	      0.01019223	      0.07093905
      0.44119776	    -12.10372450	     84.70698959	     -5.19954248	    108.36980763	      0.01000896	      0.16045010	      0.03821177	      0.10202605	      0.03632979	      0.09705415	      0.22146498	      0.10635255	      0.02348268	      0.10501453	      0.01020734	      0.07080032
      0.44409735	    -12.11924642	     85.01945661	     -5.50986158	    107.15798627	      0.01000890	      0.16054901	      0.03860110	      0.10212869	      0.03671275	      0.09715677	      0.22183528	      0.10608891	      0.02345607	      0.10475747	      0.01021592	      0.07068059
      0.44699693	    -12.13568769	     85.32845231	     -5.83195427	    105.98086773	      0.01000885	      0.16063659	      0.03897664	      0.10223037	      0.03707899	      0.09725847	      0.22221352	      0.10582819	      0.02341546	      0.10450349	      0.01022072	      0.07056197
      0.44959382	    -12.15122300	     85.60232217	     -6.13501750	    104.94277761	      0.01000881	      0.16072355	      0.03930409	      0.10232060	      0.03739623	      0.09734874	      0.22255734	      0.10559714	      0.02336792	      0.10427867	      0.01022258	      0.07045664
      0.45219071	    -12.16755831	     85.87353120	     -6.44721712	    103.93416553	      0.01000876	      0.16080067	      0.03962657	      0.10241005	      0.03770735	      0.09743824	      0.22290371	      0.10536838	      0.02331086	      0.10405631	      0.01022283	      0.07035216
      0.45478760	    -12.18471995	     86.14214745	     -6.77184698	    102.94451880	      0.01000871	      0.16088176	      0.03994742	      0.10249868	      0.03801629	      0.09752693	      0.22325040	      0.10514190	      0.02324543	      0.10383640	      0.01022256	      0.07024850
      0.45822186	    -12.20873525	     86.49349115	     -7.21614606	    101.67519106	      0.01000866	      0.16098176	      0.04036999	      0.10261466	      0.03842246	      0.09764299	      0.22370915	      0.10484585	      0.02314697	      0.10354925	      0.01022177	      0.07011265
      0.46103697	    -12.22957973	     86.77828310	     -7.59544436	    100.65899837	      0.01000861	      0.16106833	      0.04071506	      0.10270869	      0.03875364	      0.09773709	      0.22408659	      0.10460608	      0.02305524	      0.10331695	      0.01022068	      0.07000230
      0.46385207	    -12.25150693	     87.06025506	     -7.98425429	     99.67458705	      0.01000856	      0.16114576	      0.04105903	      0.10280180	      0.03908336	      0.09783029	      0.22446632	      0.10436889	      0.02295238	      0.10308739	      0.01021912	      0.06989285
      0.46666717	    -12.27454571	     87.33948733	     -8.38588991	     98.71016883	      0.01000851	      0.16122770	      0.04140217	      0.10289403	      0.03941196	      0.09792259	      0.22484780	      0.10413425	      0.02283912	      0.10286055	      0.01021713	      0.06978428
      0.46948227	    -12.29872919	     87.61604189	     -8.79684028	     97.77371655	      0.01000846	      0.16130356	      0.04174495	      0.10298538	      0.03974027	      0.09801402	      0.22522976	      0.10390213	      0.02271557	      0.10263639	      0.01021469	      0.06967656
      0.47299033	    -12.33050883	     87.95703404	     -9.32455468	     96.63501494	      0.01000840	      0.16140136	      0.04217207	      0.10309802	      0.04014978	      0.09812676	      0.22570519	      0.10361634	      0.02254739	      0.10236076	      0.01021103	      0.06954351
      0.47591173	    -12.35840347	     88.23799696	     -9.77335790	     95.71848361	      0.01000835	      0.16147482	      0.04252796	      0.10319083	      0.04049127	      0.09821966	      0.22610079	      0.10338125	      0.02239615	      0.10213430	      0.01020751	      0.06943366
      0.47883313	    -12.38762491	     88.51631165	    -10.23364267	     94.81941605	      0.01000831	      0.16155291	      0.04288656	      0.10328277	      0.04083582	      0.09831167	      0.22649656	      0.10314875	      0.02223483	      0.10191061	      0.01020372	      0.06932468
      0.48175453	    -12.41820304	     88.79203502	    -10.70143502	     93.94593795	      0.01000826	      0.16162482	      0.04324799	      0.10337382	      0.04118351	      0.09840280	      0.22689257	      0.10291882	      0.02206392	      0.10168964	      0.01019974	      0.06921654
      0.48537784	    -12.45804715	     89.13050489	    -11.29460104	     92.88654517	      0.01000820	      0.16171681	      0.04369954	      0.10348556	      0.04161841	      0.09851463	      0.22738473	      0.10263716	      0.02183909	      0.10141930	      0.01019455	      0.06908355
      0.48848731	    -12.49396903	     89.41795655	    -11.81095883	     92.00598343	      0.01000815	      0.16178801	      0.04409083	      0.10358044	      0.04199599	      0.09860958	      0.22781080	      0.10239848	      0.02163337	      0.10119054	      0.01018989	      0.06897040
      0.49159679	    -12.53151033	     89.70269740	    -12.33710504	     91.13994683	      0.01000810	      0.16186357	      0.04448475	      0.10367439	      0.04237660	      0.09870360	      0.22823958	      0.10216257	      0.02141658	      0.10096475	      0.01018505	      0.06885815
